<svg viewBox="0 0 512.001 512.001" xml:space="preserve"><path style="fill:#1e252b" d="M262.252 56.578c-110.137 0-199.42 89.285-199.42 199.422s89.283 199.422 199.42 199.422S461.673 366.137 461.673 256 372.388 56.578 262.252 56.578m0 215.731c-9.007 0-16.309-7.301-16.309-16.307s7.301-16.308 16.309-16.308c9.006 0 16.309 7.301 16.309 16.308-.001 9.005-7.302 16.307-16.309 16.307"/><path style="fill:#004d7a" d="M390.882 378.826a2.664 2.664 0 0 1-1.947-4.484c30.099-32.207 46.676-74.234 46.676-118.342 0-6.032-.314-12.115-.932-18.08a2.665 2.665 0 0 1 2.375-2.926c1.463-.162 2.775.913 2.925 2.377.638 6.147.961 12.416.961 18.629 0 45.465-17.087 88.785-48.113 121.98a2.65 2.65 0 0 1-1.945.846m-128.63 55.863c-8.834 0-17.704-.65-26.363-1.931a2.67 2.67 0 0 1-2.246-3.028 2.66 2.66 0 0 1 3.026-2.246 175 175 0 0 0 25.582 1.874c25.999 0 50.993-5.611 74.288-16.676a2.666 2.666 0 0 1 2.287 4.815c-24.015 11.408-49.778 17.192-76.574 17.192m-77.471-17.919c-.394 0-.794-.087-1.172-.274-45.445-22.307-79.432-62.948-93.247-111.499a2.664 2.664 0 1 1 5.126-1.457c13.401 47.103 46.376 86.529 90.469 108.174a2.665 2.665 0 0 1-1.176 5.056m-96.22-129.34a2.665 2.665 0 0 1-2.626-2.233 180.6 180.6 0 0 1-2.374-29.198 2.665 2.665 0 0 1 5.329 0c0 9.502.776 19.034 2.303 28.334a2.664 2.664 0 0 1-2.632 3.097m4.371-77.051q-.364 0-.731-.103a2.67 2.67 0 0 1-1.834-3.293c13.817-48.541 47.802-89.174 93.24-111.479a2.66 2.66 0 0 1 3.567 1.218 2.66 2.66 0 0 1-1.218 3.565c-44.085 21.642-77.057 61.064-90.462 108.156a2.666 2.666 0 0 1-2.562 1.936m291.606-78.329a2.65 2.65 0 0 1-1.851-.748c-32.485-31.382-75.256-48.664-120.434-48.664a2.665 2.665 0 0 1 0-5.33c46.567 0 90.654 17.813 124.138 50.16a2.665 2.665 0 0 1-1.853 4.582m-32.519 156.929a2.667 2.667 0 0 1-2.525-3.521c3.207-9.46 4.832-19.371 4.832-29.459 0-13.528-2.875-26.555-8.545-38.717a2.66 2.66 0 0 1 1.289-3.54 2.66 2.66 0 0 1 3.541 1.29c6.001 12.872 9.046 26.653 9.046 40.967 0 10.671-1.721 21.158-5.114 31.168a2.665 2.665 0 0 1-2.524 1.812m-89.416 64.075c-30.851 0-59.174-14.176-77.704-38.891a2.667 2.667 0 0 1 .533-3.732 2.67 2.67 0 0 1 3.731.534c17.514 23.361 44.283 36.76 73.44 36.76 15.407 0 30.644-3.894 44.064-11.258a2.664 2.664 0 1 1 2.566 4.671c-14.205 7.795-30.328 11.916-46.63 11.916m-83.45-138.543a2.663 2.663 0 0 1-2.352-3.913c9.435-17.798 24.558-32.543 42.578-41.522a2.664 2.664 0 1 1 2.377 4.771c-17.034 8.489-31.328 22.426-40.247 39.247a2.66 2.66 0 0 1-2.356 1.417m128.4-38.865c-.43 0-.864-.104-1.269-.323-13.318-7.229-28.424-11.05-43.681-11.05-6.223 0-12.444.627-18.489 1.863a2.665 2.665 0 1 1-1.068-5.221 97.8 97.8 0 0 1 19.557-1.973c16.143 0 32.128 4.044 46.224 11.696a2.666 2.666 0 0 1-1.274 5.008m24.026 18.583a2.66 2.66 0 0 1-1.948-.845 93 93 0 0 0-9.586-8.901 2.67 2.67 0 0 1-.406-3.748 2.667 2.667 0 0 1 3.748-.406 98 98 0 0 1 10.139 9.415 2.663 2.663 0 0 1-.128 3.765 2.65 2.65 0 0 1-1.819.72"/><path style="fill:#ffb819" d="M262.252 198.216c-31.913 0-57.783 25.874-57.783 57.785 0 31.914 25.871 57.785 57.783 57.785s57.782-25.872 57.782-57.785c.001-31.911-25.87-57.785-57.782-57.785m0 74.093c-9.007 0-16.309-7.301-16.309-16.307s7.301-16.308 16.309-16.308c9.006 0 16.309 7.301 16.309 16.308-.001 9.005-7.302 16.307-16.309 16.307"/><path style="fill:#d85c72" d="M482.08 143.494 379.029 161.82v112.45c-4.852-.9-10.262-.929-15.976.086-20.813 3.703-37.686 19.789-37.686 35.93 0 16.142 16.873 26.228 37.686 22.525 20.817-3.702 37.688-19.789 37.688-35.93V192.597l81.339-14.466v77.811c-4.85-.898-10.261-.928-15.974.088-20.814 3.705-37.688 19.788-37.688 35.931 0 16.141 16.873 26.225 37.688 22.522 20.813-3.7 37.688-19.788 37.688-35.926V139.633zM61.869 196.895v112.45c-4.852-.899-10.262-.929-15.976.087-20.813 3.703-37.686 19.789-37.686 35.929 0 16.143 16.873 26.228 37.686 22.525 20.815-3.703 37.688-19.789 37.688-35.929V227.672l33.875-6.024V187.01z"/><path style="fill:#022a3a" d="M262.252 231.486c-13.517 0-24.515 10.997-24.515 24.514s10.997 24.514 24.515 24.514 24.515-10.997 24.515-24.514-10.998-24.514-24.515-24.514m0 32.616c-4.467 0-8.102-3.634-8.102-8.101s3.635-8.101 8.102-8.101 8.102 3.634 8.102 8.101c0 4.466-3.635 8.101-8.102 8.101m0-74.092c-36.387 0-65.989 29.604-65.989 65.992s29.603 65.992 65.989 65.992 65.988-29.604 65.988-65.992-29.602-65.992-65.988-65.992m0 115.569c-27.337 0-49.577-22.24-49.577-49.579s22.24-49.579 49.577-49.579 49.576 22.24 49.576 49.579-22.24 49.579-49.576 49.579m246.811-172.236a8.2 8.2 0 0 0-6.707-1.789l-65.749 11.693c-17.98-27.742-42.478-50.993-71.164-67.453-31.261-17.939-66.946-27.421-103.193-27.421-44.865 0-87.578 14.082-123.52 40.723-33.89 25.12-58.923 59.174-72.643 98.715l-5.657 1.007a8.205 8.205 0 0 0-6.77 8.079V300.47a57 57 0 0 0-9.207.886C19.528 305.788 0 325.119 0 345.362c0 18.251 15.742 31.497 37.432 31.497 3.239 0 6.569-.3 9.899-.893 13.661-2.43 25.69-9.338 33.782-18.413 16.527 29.446 40.006 54.473 68.56 72.932 33.538 21.682 72.468 33.143 112.58 33.143 45.186 0 88.145-14.265 124.232-41.252 33.278-24.888 58.735-59.851 72.186-98.945a57 57 0 0 0 8.874-.869c24.93-4.431 44.457-23.761 44.457-44.005V139.633a8.21 8.21 0 0 0-2.939-6.29m-433.688 94.33v104.285c0 12.115-14.159 24.868-30.919 27.85a40 40 0 0 1-7.023.639c-14.442 0-21.019-7.819-21.019-15.084 0-12.115 14.159-24.868 30.918-27.85a40 40 0 0 1 6.997-.636c2.089 0 4.123.182 6.045.537a8.2 8.2 0 0 0 6.743-1.758 8.2 8.2 0 0 0 2.959-6.31V203.772l39.175-6.967v17.968l-27.106 4.821a8.205 8.205 0 0 0-6.77 8.079m301.278 181.559c-33.227 24.85-72.786 37.984-114.402 37.984-36.944 0-72.792-10.552-103.669-30.514a191.64 191.64 0 0 1-67.927-76.301c.732-2.77 1.131-5.597 1.131-8.444v-97.408l27.106-4.821a8.206 8.206 0 0 0 6.77-8.079V187.01a8.2 8.2 0 0 0-2.936-6.29 8.2 8.2 0 0 0-6.707-1.789l-31.161 5.541c13.15-32.7 34.949-60.92 63.647-82.192 33.093-24.53 72.425-37.496 113.745-37.496 33.385 0 66.244 8.729 95.024 25.244 24.41 14.006 45.534 33.347 61.671 56.358l-41.354 7.355a8.206 8.206 0 0 0-6.77 8.079v103.573a57 57 0 0 0-9.206.885c-24.928 4.435-44.456 23.765-44.456 44.01 0 18.251 15.743 31.497 37.432 31.497 3.24 0 6.569-.3 9.898-.893 24.93-4.432 44.457-23.764 44.457-44.01v-97.407l34.033-6.053c6.422 18.536 9.922 37.879 10.419 57.659-19.301 7.389-33.187 23.811-33.187 40.88 0 13.518 8.644 24.284 21.94 28.96-12.622 34.862-35.643 65.984-65.498 88.311m118.934-130.675c0 12.115-14.159 24.867-30.918 27.847a40.3 40.3 0 0 1-7.023.638c-14.443 0-21.02-7.818-21.02-15.081 0-12.114 14.159-24.869 30.917-27.851 4.553-.81 9.03-.844 13.044-.1a8.2 8.2 0 0 0 6.742-1.758 8.21 8.21 0 0 0 2.959-6.31v-77.811a8.2 8.2 0 0 0-2.937-6.29 8.2 8.2 0 0 0-6.707-1.789l-81.338 14.467a8.206 8.206 0 0 0-6.769 8.079v104.284c0 12.117-14.159 24.87-30.919 27.851a40 40 0 0 1-7.023.639c-14.442 0-21.019-7.819-21.019-15.084 0-12.116 14.159-24.869 30.916-27.85a40 40 0 0 1 6.998-.636c2.089 0 4.123.181 6.043.537a8.203 8.203 0 0 0 9.704-8.068V168.697l108.352-19.269v129.129zm-36.254-88.045 14.54-2.586v59.141a55 55 0 0 0-4.182.221c-.798-19.428-4.267-38.454-10.358-56.776"/></svg>