<svg xmlns="http://www.w3.org/2000/svg" viewBox="0 0 512 512" xml:space="preserve"><circle style="fill:#733cb9" cx="256" cy="256" r="247.409"/><circle style="fill:#ff507d" cx="256" cy="256" r="100.796"/><path d="M437.02 74.98C388.668 26.629 324.38 0 256 0S123.332 26.629 74.98 74.98C26.629 123.332 0 187.62 0 256s26.629 132.668 74.98 181.02C123.332 485.371 187.62 512 256 512s132.668-26.629 181.02-74.98C485.371 388.668 512 324.38 512 256s-26.629-132.668-74.98-181.02M256 494.819C124.315 494.819 17.181 387.685 17.181 256S124.315 17.181 256 17.181 494.819 124.315 494.819 256 387.685 494.819 256 494.819"/><path d="M256 146.613c-60.316 0-109.387 49.071-109.387 109.387S195.684 365.387 256 365.387 365.387 316.316 365.387 256 316.316 146.613 256 146.613m-8.591 201.178c-18.984-1.763-36.318-9.293-50.218-20.834l50.218-50.218zm0-95.349-62.368 62.368c-13.26-15.974-21.247-36.476-21.247-58.81 0-47.945 36.787-87.443 83.615-91.791zm17.182 95.349v-71.052l50.218 50.218c-13.901 11.541-31.234 19.071-50.218 20.834m62.367-32.982-62.368-62.367v-88.234c46.828 4.349 83.615 43.848 83.615 91.791.001 22.335-7.986 42.837-21.247 58.81"/><path d="M256 384.859c-71.053 0-128.859-57.806-128.859-128.859a8.591 8.591 0 0 0-17.182 0c0 80.527 65.513 146.04 146.04 146.04a8.591 8.591 0 0 0 .001-17.181m0-274.899a8.591 8.591 0 0 0 0 17.182c71.053 0 128.859 57.806 128.859 128.859a8.591 8.591 0 0 0 17.182 0C402.04 175.473 336.527 109.96 256 109.96"/><path d="M256 421.512c-91.264 0-165.512-74.248-165.512-165.512a8.591 8.591 0 0 0-17.182 0c0 100.738 81.956 182.694 182.694 182.694a8.591 8.591 0 0 0 0-17.182m0-348.206a8.591 8.591 0 0 0 0 17.182c91.264 0 165.512 74.248 165.512 165.512a8.591 8.591 0 0 0 17.182 0c0-100.738-81.956-182.694-182.694-182.694"/><path d="M256 458.166c-111.474 0-202.166-90.692-202.166-202.166a8.591 8.591 0 0 0-17.182 0c0 120.948 98.399 219.347 219.347 219.347a8.591 8.591 0 0 0 .001-17.181m0-421.513a8.591 8.591 0 0 0 0 17.182c111.474 0 202.166 90.692 202.166 202.166a8.591 8.591 0 0 0 17.182 0C475.347 135.052 376.948 36.653 256 36.653"/></svg>