<svg width="800" height="800" viewBox="0 0 32 32" fill="#00000" style="fill-rule:evenodd;clip-rule:evenodd;stroke-linejoin:round;stroke-miterlimit:2" xml:space="preserve" xmlns="http://www.w3.org/2000/svg"><path d="M11.997 17.993h-.002a2.002 2.002 0 0 0 0 4.003 2.003 2.003 0 0 0 2.002-2.002v-7.122l6.001-.75.003 3.867a2.003 2.003 0 0 0 0 4.004 2.003 2.003 0 0 0 2.001-2.002l-.005-7.003a1 1 0 0 0-1.124-.991l-8 1a1 1 0 0 0-.876.992z"/><path d="m28 17.001.009-9.806a3.204 3.204 0 0 0-3.204-3.203H7.191a3.203 3.203 0 0 0-3.204 3.203v17.603A3.203 3.203 0 0 0 7.191 28h11.815a1 1 0 0 0 0-2H7.191a1.203 1.203 0 0 1-1.204-1.202V7.195c0-.664.539-1.203 1.204-1.203h17.614c.664 0 1.204.539 1.204 1.203L26 16.999a1 1 0 0 0 2 .002"/><path d="M24.004 22.007H23a1 1 0 0 0 0 2h1.004v.99a1 1 0 0 0 2 0v-.99H27a1 1 0 0 0 0-2h-.996V21a1 1 0 0 0-2 0z"/></svg>