<svg viewBox="0 0 321.957 321.957" ><path d="M160.6 49.021c-2.1 0-4.2.5-5.8 1.6l-95 47.2H14.2c-7.9 0-14.2 6.3-14.2 14.2v98.1c0 7.3 6.3 13.6 14.2 13.6h45.6l95 47.7c8.9 4.7 19.9-2.1 19.9-12.6v-195.7c.1-7.8-6.2-14.1-14.1-14.1m-13.6 187.3-77.7-38.8c-2.1-1-4.2-1.6-6.3-1.6H27.8v-69.8h35.3c2.1 0 4.2-.5 6.3-1.6l77.6-38.8zm170.4-36.1-38.9-39.1 39-39c9.4-8.9 2.6-24.1-10-24.1-3.7.5-7.3 1.6-9.4 4.2l-39.2 39.4-39.2-39.4c-2.6-2.6-6.3-4.2-10-4.2-12.6 0-18.9 15.2-10 24.1l39.4 39.2-38.8 39c-14.2 13.1 6.3 33.1 19.4 19.4l38.9-38.9 39.1 38.9c13.4 13.5 33.3-6.4 19.7-19.5"/></svg>