<svg viewBox="0 0 322.037 322.037" ><path d="M160.8 49.061c-2.1 0-4.2.5-5.8 1.6l-95.1 47.2H14.2c-7.9 0-14.2 6.3-14.2 14.2v98.1c0 7.3 6.3 13.6 14.2 13.6h45.7l95.1 47.7c8.9 4.7 20-2.1 20-12.6v-195.7c0-7.8-6.3-14.1-14.2-14.1m-91.3 148.5c-2.1-1-4.2-1.6-6.3-1.6H28v-69.8h35.1c2.1 0 4.2-.5 6.3-1.6l77.8-38.8v150.6zm140.7-75c-7.9 0-14.2 6.3-14.2 14.2v48.8c0 18.9 28.4 18.9 28.4 0v-48.8c0-7.9-6.3-14.8-14.2-14.2m48.8-24.7c-7.9 0-14.2 6.3-13.7 14.2v98.1c-.5 18.9 28.4 18.9 27.8 0v-98.1c.1-7.9-6.2-14.2-14.1-14.2m48.9-24.7c-7.4.5-13.7 6.8-13.7 14.2v146.9c-.5 18.9 28.4 18.9 27.8 0v-146.9c.6-7.9-6.2-14.2-14.1-14.2"/></svg>